<?xml version="1.0" encoding="UTF-8"?>
<!DOCTYPE svg PUBLIC "-//W3C//DTD SVG 1.1//EN" "http://www.w3.org/Graphics/SVG/1.1/DTD/svg11.dtd">
<svg version="1.2" width="300mm" height="10mm" viewBox="0 0 30000 1000" preserveAspectRatio="xMidYMid" fill-rule="evenodd" stroke-width="28.222" stroke-linejoin="round" xmlns="http://www.w3.org/2000/svg" xmlns:ooo="http://xml.openoffice.org/svg/export" xmlns:xlink="http://www.w3.org/1999/xlink" xmlns:presentation="http://sun.com/xmlns/staroffice/presentation" xmlns:smil="http://www.w3.org/2001/SMIL20/" xmlns:anim="urn:oasis:names:tc:opendocument:xmlns:animation:1.0" xmlns:svg="urn:oasis:names:tc:opendocument:xmlns:svg-compatible:1.0" xml:space="preserve">
 <defs class="ClipPathGroup">
  <clipPath id="presentation_clip_path" clipPathUnits="userSpaceOnUse">
   <rect x="0" y="0" width="30000" height="1000"/>
  </clipPath>
  <clipPath id="presentation_clip_path_shrink" clipPathUnits="userSpaceOnUse">
   <rect x="30" y="1" width="29940" height="998"/>
  </clipPath>
 </defs>
 <defs class="TextShapeIndex">
  <g ooo:slide="id1" ooo:id-list="id3 id4 id5 id6 id7 id8 id9 id10 id11 id12 id13 id14 id15 id16 id17 id18 id19 id20 id21 id22 id23 id24 id25 id26 id27 id28 id29 id30 id31 id32"/>
 </defs>
 <defs class="EmbeddedBulletChars">
  <g id="bullet-char-template-57356" transform="scale(0.00048828125,-0.00048828125)">
   <path d="M 580,1141 L 1163,571 580,0 -4,571 580,1141 Z"/>
  </g>
  <g id="bullet-char-template-57354" transform="scale(0.00048828125,-0.00048828125)">
   <path d="M 8,1128 L 1137,1128 1137,0 8,0 8,1128 Z"/>
  </g>
  <g id="bullet-char-template-10146" transform="scale(0.00048828125,-0.00048828125)">
   <path d="M 174,0 L 602,739 174,1481 1456,739 174,0 Z M 1358,739 L 309,1346 659,739 1358,739 Z"/>
  </g>
  <g id="bullet-char-template-10132" transform="scale(0.00048828125,-0.00048828125)">
   <path d="M 2015,739 L 1276,0 717,0 1260,543 174,543 174,936 1260,936 717,1481 1274,1481 2015,739 Z"/>
  </g>
  <g id="bullet-char-template-10007" transform="scale(0.00048828125,-0.00048828125)">
   <path d="M 0,-2 C -7,14 -16,27 -25,37 L 356,567 C 262,823 215,952 215,954 215,979 228,992 255,992 264,992 276,990 289,987 310,991 331,999 354,1012 L 381,999 492,748 772,1049 836,1024 860,1049 C 881,1039 901,1025 922,1006 886,937 835,863 770,784 769,783 710,716 594,584 L 774,223 C 774,196 753,168 711,139 L 727,119 C 717,90 699,76 672,76 641,76 570,178 457,381 L 164,-76 C 142,-110 111,-127 72,-127 30,-127 9,-110 8,-76 1,-67 -2,-52 -2,-32 -2,-23 -1,-13 0,-2 Z"/>
  </g>
  <g id="bullet-char-template-10004" transform="scale(0.00048828125,-0.00048828125)">
   <path d="M 285,-33 C 182,-33 111,30 74,156 52,228 41,333 41,471 41,549 55,616 82,672 116,743 169,778 240,778 293,778 328,747 346,684 L 369,508 C 377,444 397,411 428,410 L 1163,1116 C 1174,1127 1196,1133 1229,1133 1271,1133 1292,1118 1292,1087 L 1292,965 C 1292,929 1282,901 1262,881 L 442,47 C 390,-6 338,-33 285,-33 Z"/>
  </g>
  <g id="bullet-char-template-9679" transform="scale(0.00048828125,-0.00048828125)">
   <path d="M 813,0 C 632,0 489,54 383,161 276,268 223,411 223,592 223,773 276,916 383,1023 489,1130 632,1184 813,1184 992,1184 1136,1130 1245,1023 1353,916 1407,772 1407,592 1407,412 1353,268 1245,161 1136,54 992,0 813,0 Z"/>
  </g>
  <g id="bullet-char-template-8226" transform="scale(0.00048828125,-0.00048828125)">
   <path d="M 346,457 C 273,457 209,483 155,535 101,586 74,649 74,723 74,796 101,859 155,911 209,963 273,989 346,989 419,989 480,963 531,910 582,859 608,796 608,723 608,648 583,586 532,535 482,483 420,457 346,457 Z"/>
  </g>
  <g id="bullet-char-template-8211" transform="scale(0.00048828125,-0.00048828125)">
   <path d="M -4,459 L 1135,459 1135,606 -4,606 -4,459 Z"/>
  </g>
  <g id="bullet-char-template-61548" transform="scale(0.00048828125,-0.00048828125)">
   <path d="M 173,740 C 173,903 231,1043 346,1159 462,1274 601,1332 765,1332 928,1332 1067,1274 1183,1159 1299,1043 1357,903 1357,740 1357,577 1299,437 1183,322 1067,206 928,148 765,148 601,148 462,206 346,322 231,437 173,577 173,740 Z"/>
  </g>
 </defs>
 <g>
  <g id="id2" class="Master_Slide">
   <g id="bg-id2" class="Background"/>
   <g id="bo-id2" class="BackgroundObjects"/>
  </g>
 </g>
 <g class="SlideGroup">
  <g>
   <g id="container-id1">
    <g id="id1" class="Slide" clip-path="url(#presentation_clip_path)">
     <g class="Page">
      <g class="com.sun.star.drawing.CustomShape">
       <g id="id3">
        <rect class="BoundingBox" stroke="none" fill="none" x="-25" y="-25" width="1051" height="1051"/>
        <path fill="rgb(16,120,149)" stroke="none" d="M 500,1000 L 0,1000 0,0 1000,0 1000,1000 500,1000 Z"/>
        <path fill="none" stroke="rgb(0,0,0)" stroke-width="50" stroke-linejoin="round" d="M 500,1000 L 0,1000 0,0 1000,0 1000,1000 500,1000 Z"/>
       </g>
      </g>
      <g class="com.sun.star.drawing.CustomShape">
       <g id="id4">
        <rect class="BoundingBox" stroke="none" fill="none" x="975" y="-25" width="1051" height="1051"/>
        <path fill="rgb(16,120,149)" stroke="none" d="M 1500,1000 L 1000,1000 1000,0 2000,0 2000,1000 1500,1000 Z"/>
        <path fill="none" stroke="rgb(0,0,0)" stroke-width="50" stroke-linejoin="round" d="M 1500,1000 L 1000,1000 1000,0 2000,0 2000,1000 1500,1000 Z"/>
       </g>
      </g>
      <g class="com.sun.star.drawing.CustomShape">
       <g id="id5">
        <rect class="BoundingBox" stroke="none" fill="none" x="1975" y="-25" width="1051" height="1051"/>
        <path fill="rgb(255,255,255)" stroke="none" d="M 2500,1000 L 2000,1000 2000,0 3000,0 3000,1000 2500,1000 Z"/>
        <path fill="none" stroke="rgb(0,0,0)" stroke-width="50" stroke-linejoin="round" d="M 2500,1000 L 2000,1000 2000,0 3000,0 3000,1000 2500,1000 Z"/>
       </g>
      </g>
      <g class="com.sun.star.drawing.CustomShape">
       <g id="id6">
        <rect class="BoundingBox" stroke="none" fill="none" x="2975" y="-25" width="1051" height="1051"/>
        <path fill="rgb(255,255,255)" stroke="none" d="M 3500,1000 L 3000,1000 3000,0 4000,0 4000,1000 3500,1000 Z"/>
        <path fill="none" stroke="rgb(0,0,0)" stroke-width="50" stroke-linejoin="round" d="M 3500,1000 L 3000,1000 3000,0 4000,0 4000,1000 3500,1000 Z"/>
       </g>
      </g>
      <g class="com.sun.star.drawing.CustomShape">
       <g id="id7">
        <rect class="BoundingBox" stroke="none" fill="none" x="3975" y="-25" width="1051" height="1051"/>
        <path fill="rgb(255,255,255)" stroke="none" d="M 4500,1000 L 4000,1000 4000,0 5000,0 5000,1000 4500,1000 Z"/>
        <path fill="none" stroke="rgb(0,0,0)" stroke-width="50" stroke-linejoin="round" d="M 4500,1000 L 4000,1000 4000,0 5000,0 5000,1000 4500,1000 Z"/>
       </g>
      </g>
      <g class="com.sun.star.drawing.CustomShape">
       <g id="id8">
        <rect class="BoundingBox" stroke="none" fill="none" x="4975" y="-25" width="1051" height="1051"/>
        <path fill="rgb(255,255,255)" stroke="none" d="M 5500,1000 L 5000,1000 5000,0 6000,0 6000,1000 5500,1000 Z"/>
        <path fill="none" stroke="rgb(0,0,0)" stroke-width="50" stroke-linejoin="round" d="M 5500,1000 L 5000,1000 5000,0 6000,0 6000,1000 5500,1000 Z"/>
       </g>
      </g>
      <g class="com.sun.star.drawing.CustomShape">
       <g id="id9">
        <rect class="BoundingBox" stroke="none" fill="none" x="5975" y="-25" width="1051" height="1051"/>
        <path fill="rgb(16,120,149)" stroke="none" d="M 6500,1000 L 6000,1000 6000,0 7000,0 7000,1000 6500,1000 Z"/>
        <path fill="none" stroke="rgb(0,0,0)" stroke-width="50" stroke-linejoin="round" d="M 6500,1000 L 6000,1000 6000,0 7000,0 7000,1000 6500,1000 Z"/>
       </g>
      </g>
      <g class="com.sun.star.drawing.CustomShape">
       <g id="id10">
        <rect class="BoundingBox" stroke="none" fill="none" x="6975" y="-25" width="1051" height="1051"/>
        <path fill="rgb(16,120,149)" stroke="none" d="M 7500,1000 L 7000,1000 7000,0 8000,0 8000,1000 7500,1000 Z"/>
        <path fill="none" stroke="rgb(0,0,0)" stroke-width="50" stroke-linejoin="round" d="M 7500,1000 L 7000,1000 7000,0 8000,0 8000,1000 7500,1000 Z"/>
       </g>
      </g>
      <g class="com.sun.star.drawing.CustomShape">
       <g id="id11">
        <rect class="BoundingBox" stroke="none" fill="none" x="7975" y="-25" width="1051" height="1051"/>
        <path fill="rgb(255,255,255)" stroke="none" d="M 8500,1000 L 8000,1000 8000,0 9000,0 9000,1000 8500,1000 Z"/>
        <path fill="none" stroke="rgb(0,0,0)" stroke-width="50" stroke-linejoin="round" d="M 8500,1000 L 8000,1000 8000,0 9000,0 9000,1000 8500,1000 Z"/>
       </g>
      </g>
      <g class="com.sun.star.drawing.CustomShape">
       <g id="id12">
        <rect class="BoundingBox" stroke="none" fill="none" x="8975" y="-25" width="1051" height="1051"/>
        <path fill="rgb(255,255,255)" stroke="none" d="M 9500,1000 L 9000,1000 9000,0 10000,0 10000,1000 9500,1000 Z"/>
        <path fill="none" stroke="rgb(0,0,0)" stroke-width="50" stroke-linejoin="round" d="M 9500,1000 L 9000,1000 9000,0 10000,0 10000,1000 9500,1000 Z"/>
       </g>
      </g>
      <g class="com.sun.star.drawing.CustomShape">
       <g id="id13">
        <rect class="BoundingBox" stroke="none" fill="none" x="9975" y="-25" width="1051" height="1051"/>
        <path fill="rgb(255,255,255)" stroke="none" d="M 10500,1000 L 10000,1000 10000,0 11000,0 11000,1000 10500,1000 Z"/>
        <path fill="none" stroke="rgb(0,0,0)" stroke-width="50" stroke-linejoin="round" d="M 10500,1000 L 10000,1000 10000,0 11000,0 11000,1000 10500,1000 Z"/>
       </g>
      </g>
      <g class="com.sun.star.drawing.CustomShape">
       <g id="id14">
        <rect class="BoundingBox" stroke="none" fill="none" x="10975" y="-25" width="1051" height="1051"/>
        <path fill="rgb(255,255,255)" stroke="none" d="M 11500,1000 L 11000,1000 11000,0 12000,0 12000,1000 11500,1000 Z"/>
        <path fill="none" stroke="rgb(0,0,0)" stroke-width="50" stroke-linejoin="round" d="M 11500,1000 L 11000,1000 11000,0 12000,0 12000,1000 11500,1000 Z"/>
       </g>
      </g>
      <g class="com.sun.star.drawing.CustomShape">
       <g id="id15">
        <rect class="BoundingBox" stroke="none" fill="none" x="11975" y="-25" width="1051" height="1051"/>
        <path fill="rgb(16,120,149)" stroke="none" d="M 12500,1000 L 12000,1000 12000,0 13000,0 13000,1000 12500,1000 Z"/>
        <path fill="none" stroke="rgb(0,0,0)" stroke-width="50" stroke-linejoin="round" d="M 12500,1000 L 12000,1000 12000,0 13000,0 13000,1000 12500,1000 Z"/>
       </g>
      </g>
      <g class="com.sun.star.drawing.CustomShape">
       <g id="id16">
        <rect class="BoundingBox" stroke="none" fill="none" x="12975" y="-25" width="1051" height="1051"/>
        <path fill="rgb(16,120,149)" stroke="none" d="M 13500,1000 L 13000,1000 13000,0 14000,0 14000,1000 13500,1000 Z"/>
        <path fill="none" stroke="rgb(0,0,0)" stroke-width="50" stroke-linejoin="round" d="M 13500,1000 L 13000,1000 13000,0 14000,0 14000,1000 13500,1000 Z"/>
       </g>
      </g>
      <g class="com.sun.star.drawing.CustomShape">
       <g id="id17">
        <rect class="BoundingBox" stroke="none" fill="none" x="13975" y="-25" width="1051" height="1051"/>
        <path fill="rgb(255,255,255)" stroke="none" d="M 14500,1000 L 14000,1000 14000,0 15000,0 15000,1000 14500,1000 Z"/>
        <path fill="none" stroke="rgb(0,0,0)" stroke-width="50" stroke-linejoin="round" d="M 14500,1000 L 14000,1000 14000,0 15000,0 15000,1000 14500,1000 Z"/>
       </g>
      </g>
      <g class="com.sun.star.drawing.CustomShape">
       <g id="id18">
        <rect class="BoundingBox" stroke="none" fill="none" x="14975" y="-25" width="1051" height="1051"/>
        <path fill="rgb(255,255,255)" stroke="none" d="M 15500,1000 L 15000,1000 15000,0 16000,0 16000,1000 15500,1000 Z"/>
        <path fill="none" stroke="rgb(0,0,0)" stroke-width="50" stroke-linejoin="round" d="M 15500,1000 L 15000,1000 15000,0 16000,0 16000,1000 15500,1000 Z"/>
       </g>
      </g>
      <g class="com.sun.star.drawing.CustomShape">
       <g id="id19">
        <rect class="BoundingBox" stroke="none" fill="none" x="15975" y="-25" width="1051" height="1051"/>
        <path fill="rgb(255,255,255)" stroke="none" d="M 16500,1000 L 16000,1000 16000,0 17000,0 17000,1000 16500,1000 Z"/>
        <path fill="none" stroke="rgb(0,0,0)" stroke-width="50" stroke-linejoin="round" d="M 16500,1000 L 16000,1000 16000,0 17000,0 17000,1000 16500,1000 Z"/>
       </g>
      </g>
      <g class="com.sun.star.drawing.CustomShape">
       <g id="id20">
        <rect class="BoundingBox" stroke="none" fill="none" x="16975" y="-25" width="1051" height="1051"/>
        <path fill="rgb(255,255,255)" stroke="none" d="M 17500,1000 L 17000,1000 17000,0 18000,0 18000,1000 17500,1000 Z"/>
        <path fill="none" stroke="rgb(0,0,0)" stroke-width="50" stroke-linejoin="round" d="M 17500,1000 L 17000,1000 17000,0 18000,0 18000,1000 17500,1000 Z"/>
       </g>
      </g>
      <g class="com.sun.star.drawing.CustomShape">
       <g id="id21">
        <rect class="BoundingBox" stroke="none" fill="none" x="17975" y="-25" width="1051" height="1051"/>
        <path fill="rgb(16,120,149)" stroke="none" d="M 18500,1000 L 18000,1000 18000,0 19000,0 19000,1000 18500,1000 Z"/>
        <path fill="none" stroke="rgb(0,0,0)" stroke-width="50" stroke-linejoin="round" d="M 18500,1000 L 18000,1000 18000,0 19000,0 19000,1000 18500,1000 Z"/>
       </g>
      </g>
      <g class="com.sun.star.drawing.CustomShape">
       <g id="id22">
        <rect class="BoundingBox" stroke="none" fill="none" x="18975" y="-25" width="1051" height="1051"/>
        <path fill="rgb(16,120,149)" stroke="none" d="M 19500,1000 L 19000,1000 19000,0 20000,0 20000,1000 19500,1000 Z"/>
        <path fill="none" stroke="rgb(0,0,0)" stroke-width="50" stroke-linejoin="round" d="M 19500,1000 L 19000,1000 19000,0 20000,0 20000,1000 19500,1000 Z"/>
       </g>
      </g>
      <g class="com.sun.star.drawing.CustomShape">
       <g id="id23">
        <rect class="BoundingBox" stroke="none" fill="none" x="19975" y="-25" width="1051" height="1051"/>
        <path fill="rgb(255,255,255)" stroke="none" d="M 20500,1000 L 20000,1000 20000,0 21000,0 21000,1000 20500,1000 Z"/>
        <path fill="none" stroke="rgb(0,0,0)" stroke-width="50" stroke-linejoin="round" d="M 20500,1000 L 20000,1000 20000,0 21000,0 21000,1000 20500,1000 Z"/>
       </g>
      </g>
      <g class="com.sun.star.drawing.CustomShape">
       <g id="id24">
        <rect class="BoundingBox" stroke="none" fill="none" x="20975" y="-25" width="1051" height="1051"/>
        <path fill="rgb(255,255,255)" stroke="none" d="M 21500,1000 L 21000,1000 21000,0 22000,0 22000,1000 21500,1000 Z"/>
        <path fill="none" stroke="rgb(0,0,0)" stroke-width="50" stroke-linejoin="round" d="M 21500,1000 L 21000,1000 21000,0 22000,0 22000,1000 21500,1000 Z"/>
       </g>
      </g>
      <g class="com.sun.star.drawing.CustomShape">
       <g id="id25">
        <rect class="BoundingBox" stroke="none" fill="none" x="21975" y="-25" width="1051" height="1051"/>
        <path fill="rgb(255,255,255)" stroke="none" d="M 22500,1000 L 22000,1000 22000,0 23000,0 23000,1000 22500,1000 Z"/>
        <path fill="none" stroke="rgb(0,0,0)" stroke-width="50" stroke-linejoin="round" d="M 22500,1000 L 22000,1000 22000,0 23000,0 23000,1000 22500,1000 Z"/>
       </g>
      </g>
      <g class="com.sun.star.drawing.CustomShape">
       <g id="id26">
        <rect class="BoundingBox" stroke="none" fill="none" x="22975" y="-25" width="1051" height="1051"/>
        <path fill="rgb(255,255,255)" stroke="none" d="M 23500,1000 L 23000,1000 23000,0 24000,0 24000,1000 23500,1000 Z"/>
        <path fill="none" stroke="rgb(0,0,0)" stroke-width="50" stroke-linejoin="round" d="M 23500,1000 L 23000,1000 23000,0 24000,0 24000,1000 23500,1000 Z"/>
       </g>
      </g>
      <g class="com.sun.star.drawing.CustomShape">
       <g id="id27">
        <rect class="BoundingBox" stroke="none" fill="none" x="23975" y="-25" width="1051" height="1051"/>
        <path fill="rgb(16,120,149)" stroke="none" d="M 24500,1000 L 24000,1000 24000,0 25000,0 25000,1000 24500,1000 Z"/>
        <path fill="none" stroke="rgb(0,0,0)" stroke-width="50" stroke-linejoin="round" d="M 24500,1000 L 24000,1000 24000,0 25000,0 25000,1000 24500,1000 Z"/>
       </g>
      </g>
      <g class="com.sun.star.drawing.CustomShape">
       <g id="id28">
        <rect class="BoundingBox" stroke="none" fill="none" x="24975" y="-25" width="1051" height="1051"/>
        <path fill="rgb(16,120,149)" stroke="none" d="M 25500,1000 L 25000,1000 25000,0 26000,0 26000,1000 25500,1000 Z"/>
        <path fill="none" stroke="rgb(0,0,0)" stroke-width="50" stroke-linejoin="round" d="M 25500,1000 L 25000,1000 25000,0 26000,0 26000,1000 25500,1000 Z"/>
       </g>
      </g>
      <g class="com.sun.star.drawing.CustomShape">
       <g id="id29">
        <rect class="BoundingBox" stroke="none" fill="none" x="25975" y="-25" width="1051" height="1051"/>
        <path fill="rgb(255,255,255)" stroke="none" d="M 26500,1000 L 26000,1000 26000,0 27000,0 27000,1000 26500,1000 Z"/>
        <path fill="none" stroke="rgb(0,0,0)" stroke-width="50" stroke-linejoin="round" d="M 26500,1000 L 26000,1000 26000,0 27000,0 27000,1000 26500,1000 Z"/>
       </g>
      </g>
      <g class="com.sun.star.drawing.CustomShape">
       <g id="id30">
        <rect class="BoundingBox" stroke="none" fill="none" x="26975" y="-25" width="1051" height="1051"/>
        <path fill="rgb(255,255,255)" stroke="none" d="M 27500,1000 L 27000,1000 27000,0 28000,0 28000,1000 27500,1000 Z"/>
        <path fill="none" stroke="rgb(0,0,0)" stroke-width="50" stroke-linejoin="round" d="M 27500,1000 L 27000,1000 27000,0 28000,0 28000,1000 27500,1000 Z"/>
       </g>
      </g>
      <g class="com.sun.star.drawing.CustomShape">
       <g id="id31">
        <rect class="BoundingBox" stroke="none" fill="none" x="27975" y="-25" width="1051" height="1051"/>
        <path fill="rgb(255,255,255)" stroke="none" d="M 28500,1000 L 28000,1000 28000,0 29000,0 29000,1000 28500,1000 Z"/>
        <path fill="none" stroke="rgb(0,0,0)" stroke-width="50" stroke-linejoin="round" d="M 28500,1000 L 28000,1000 28000,0 29000,0 29000,1000 28500,1000 Z"/>
       </g>
      </g>
      <g class="com.sun.star.drawing.CustomShape">
       <g id="id32">
        <rect class="BoundingBox" stroke="none" fill="none" x="28975" y="-25" width="1051" height="1051"/>
        <path fill="rgb(255,255,255)" stroke="none" d="M 29500,1000 L 29000,1000 29000,0 30000,0 30000,1000 29500,1000 Z"/>
        <path fill="none" stroke="rgb(0,0,0)" stroke-width="50" stroke-linejoin="round" d="M 29500,1000 L 29000,1000 29000,0 30000,0 30000,1000 29500,1000 Z"/>
       </g>
      </g>
     </g>
    </g>
   </g>
  </g>
 </g>
</svg>